<svg width="48" height="48" viewBox="0 0 48 48" fill="none" xmlns="http://www.w3.org/2000/svg">
<g clip-path="url(#clip0_0_1)">
<path d="M48 0H0V48H48V0Z" fill="#323238"/>
<path d="M10.5 10.72H16.296V15.4H10.5V10.72ZM7.692 32.644H11.148V22.816H7.692V18.46H16.224V32.644H19.32V37H7.692V32.644ZM22.6838 18.46H27.6518V21.664C28.4198 20.392 29.3078 19.456 30.3158 18.856C31.3238 18.256 32.4998 17.956 33.8438 17.956C35.8358 17.956 37.3958 18.556 38.5237 19.756C39.6518 20.932 40.2158 22.576 40.2158 24.688V37H35.1398V25.48C35.1398 24.52 34.8998 23.776 34.4198 23.248C33.9398 22.696 33.2918 22.42 32.4758 22.42C31.5158 22.42 30.6038 22.78 29.7398 23.5C28.8758 24.22 28.2158 25.132 27.7598 26.236V37H22.6838V18.46Z" fill="white"/>
</g>
<defs>
<clipPath id="clip0_0_1">
<rect width="48" height="48" fill="white"/>
</clipPath>
</defs>
</svg>
